<svg width="189" height="40" viewBox="0 0 189 40" fill="none" xmlns="http://www.w3.org/2000/svg">
<path d="M26.9834 3.33337H13.0167C6.95004 3.33337 3.33337 6.95004 3.33337 13.0167V26.9667C3.33337 33.05 6.95004 36.6667 13.0167 36.6667H26.9667C33.0334 36.6667 36.65 33.05 36.65 26.9834V13.0167C36.6667 6.95004 33.05 3.33337 26.9834 3.33337ZM19.1667 28.75C19.1667 29.35 18.5667 29.75 18.0167 29.5167C16 28.65 13.3667 27.85 11.5334 27.6167L11.2167 27.5834C10.2 27.45 9.36671 26.5 9.36671 25.4667V12.6334C9.36671 11.35 10.4 10.4 11.6667 10.5C13.75 10.6667 16.8334 11.6667 18.7667 12.7667C19.0334 12.9167 19.1667 13.2 19.1667 13.4834V28.75ZM30.6334 25.45C30.6334 26.4834 29.8 27.4334 28.7834 27.5667L28.4334 27.6C26.6167 27.85 24 28.6334 21.9834 29.4834C21.4334 29.7167 20.8334 29.3167 20.8334 28.7167V13.4667C20.8334 13.1667 20.9834 12.8834 21.25 12.7334C23.1834 11.65 26.2 10.6834 28.25 10.5H28.3167C29.6 10.5 30.6334 11.5334 30.6334 12.8167V25.45Z" fill="#4867F6"/>
<path d="M50.968 11.032H62.896V13.528H53.752V17.776H57.64C58.568 17.776 59.416 17.856 60.184 18.016C60.968 18.16 61.624 18.424 62.152 18.808C62.696 19.192 63.112 19.704 63.4 20.344C63.704 20.968 63.856 21.744 63.856 22.672C63.856 23.696 63.664 24.552 63.28 25.24C62.912 25.928 62.416 26.48 61.792 26.896C61.168 27.296 60.456 27.584 59.656 27.76C58.856 27.92 58.024 28 57.16 28H50.968V11.032ZM53.752 25.528H56.968C57.48 25.528 57.984 25.504 58.48 25.456C58.976 25.392 59.416 25.264 59.8 25.072C60.184 24.88 60.496 24.6 60.736 24.232C60.976 23.864 61.096 23.368 61.096 22.744C61.096 22.168 60.984 21.712 60.76 21.376C60.536 21.04 60.24 20.792 59.872 20.632C59.52 20.456 59.112 20.352 58.648 20.32C58.184 20.272 57.712 20.248 57.232 20.248H53.752V25.528ZM69.0867 28H66.5427V15.352H69.2787V24.04L75.7107 15.352H78.1827V28H75.4467V19.48C75.4307 19.512 73.3107 22.352 69.0867 28ZM83.3277 17.968C83.8397 17.328 84.4797 16.872 85.2477 16.6C86.0157 16.312 86.7917 16.168 87.5757 16.168C88.4397 16.168 89.2077 16.304 89.8797 16.576C90.5677 16.848 91.1517 17.232 91.6317 17.728C92.1117 18.224 92.4797 18.824 92.7357 19.528C92.9917 20.216 93.1197 20.992 93.1197 21.856C93.1197 22.784 92.9757 23.64 92.6877 24.424C92.4157 25.208 92.0077 25.88 91.4637 26.44C90.9357 26.984 90.2877 27.408 89.5197 27.712C88.7677 28.016 87.9117 28.168 86.9517 28.168C85.6877 28.152 84.6477 27.896 83.8317 27.4C83.0317 26.904 82.3997 26.264 81.9357 25.48C81.4717 24.696 81.1517 23.816 80.9757 22.84C80.7997 21.848 80.7117 20.848 80.7117 19.84C80.7117 18.832 80.7837 17.8 80.9277 16.744C81.0877 15.688 81.3997 14.752 81.8637 13.936C82.2477 13.296 82.6877 12.792 83.1837 12.424C83.6957 12.04 84.2557 11.752 84.8637 11.56C85.4717 11.352 86.1197 11.2 86.8077 11.104C87.4957 11.008 88.2077 10.912 88.9437 10.816C89.5037 10.752 90.0717 10.688 90.6477 10.624C91.2397 10.56 91.8157 10.432 92.3757 10.24V12.856C92.0877 12.984 91.6877 13.088 91.1757 13.168C90.6637 13.232 90.1197 13.296 89.5437 13.36C88.9677 13.408 88.3997 13.464 87.8397 13.528C87.2797 13.576 86.7837 13.632 86.3517 13.696C85.8397 13.776 85.3837 13.952 84.9837 14.224C84.5997 14.48 84.2877 14.8 84.0477 15.184C83.8077 15.552 83.6317 15.984 83.5197 16.48C83.4077 16.96 83.3437 17.456 83.3277 17.968ZM87.0237 25.792C87.5677 25.792 88.0477 25.688 88.4637 25.48C88.8957 25.272 89.2557 25.008 89.5437 24.688C89.8317 24.352 90.0477 23.968 90.1917 23.536C90.3357 23.088 90.4077 22.624 90.4077 22.144C90.4077 21.648 90.3277 21.184 90.1677 20.752C90.0237 20.304 89.8077 19.928 89.5197 19.624C89.2477 19.304 88.9117 19.056 88.5117 18.88C88.1117 18.704 87.6557 18.616 87.1437 18.616C86.6157 18.616 86.1357 18.704 85.7037 18.88C85.2877 19.04 84.9277 19.28 84.6237 19.6C84.3357 19.904 84.1037 20.272 83.9277 20.704C83.7517 21.136 83.6557 21.6 83.6397 22.096C83.6397 22.576 83.7037 23.04 83.8317 23.488C83.9597 23.92 84.1597 24.304 84.4317 24.64C84.7197 24.976 85.0717 25.256 85.4877 25.48C85.9197 25.688 86.4317 25.792 87.0237 25.792ZM96.5703 21.976C96.6503 20.888 96.6983 19.808 96.7143 18.736C96.7463 17.648 96.7783 16.52 96.8103 15.352H106.266V28H103.506V17.728H99.3543C99.3223 18.512 99.2903 19.296 99.2583 20.08C99.2423 20.848 99.2103 21.616 99.1623 22.384C99.1463 22.672 99.1143 23.016 99.0663 23.416C99.0343 23.8 98.9863 24.192 98.9223 24.592C98.8583 24.976 98.7623 25.344 98.6343 25.696C98.5063 26.032 98.3463 26.344 98.1543 26.632C97.8183 27.112 97.3703 27.464 96.8103 27.688C96.2663 27.896 95.6343 28 94.9143 28H94.2423V25.648C94.7223 25.648 95.1063 25.536 95.3943 25.312C95.6983 25.072 95.9223 24.776 96.0663 24.424C96.2263 24.056 96.3383 23.664 96.4023 23.248C96.4823 22.816 96.5383 22.392 96.5703 21.976ZM111.79 28H109.246V15.352H111.982V24.04L118.414 15.352H120.886V28H118.15V19.48C118.134 19.512 116.014 22.352 111.79 28ZM129.559 15.136C130.567 15.136 131.455 15.296 132.223 15.616C132.991 15.936 133.639 16.384 134.167 16.96C134.711 17.52 135.119 18.2 135.391 19C135.663 19.8 135.799 20.688 135.799 21.664C135.799 22.656 135.663 23.552 135.391 24.352C135.135 25.136 134.743 25.816 134.215 26.392C133.687 26.968 133.031 27.408 132.247 27.712C131.479 28.016 130.583 28.168 129.559 28.168C128.551 28.168 127.663 28.016 126.895 27.712C126.127 27.392 125.479 26.952 124.951 26.392C124.439 25.816 124.047 25.128 123.775 24.328C123.519 23.528 123.391 22.64 123.391 21.664C123.391 20.688 123.519 19.8 123.775 19C124.047 18.2 124.447 17.52 124.975 16.96C125.503 16.384 126.151 15.936 126.919 15.616C127.687 15.296 128.567 15.136 129.559 15.136ZM129.559 25.792C130.183 25.792 130.711 25.688 131.143 25.48C131.591 25.256 131.951 24.96 132.223 24.592C132.511 24.224 132.719 23.792 132.847 23.296C132.991 22.8 133.063 22.264 133.063 21.688C133.063 21.112 132.991 20.576 132.847 20.08C132.719 19.568 132.511 19.128 132.223 18.76C131.951 18.392 131.591 18.104 131.143 17.896C130.711 17.688 130.183 17.584 129.559 17.584C128.951 17.584 128.423 17.688 127.975 17.896C127.543 18.104 127.183 18.392 126.895 18.76C126.623 19.128 126.415 19.568 126.271 20.08C126.143 20.576 126.079 21.112 126.079 21.688C126.079 22.264 126.143 22.8 126.271 23.296C126.415 23.792 126.623 24.224 126.895 24.592C127.183 24.96 127.543 25.256 127.975 25.48C128.423 25.688 128.951 25.792 129.559 25.792ZM148.149 15.352V17.728H143.877V28H141.165V17.728H136.893V15.352H148.149ZM151.978 22.6C152.01 23.064 152.106 23.496 152.266 23.896C152.426 24.296 152.642 24.648 152.914 24.952C153.186 25.24 153.522 25.472 153.922 25.648C154.338 25.824 154.818 25.912 155.362 25.912C155.938 25.912 156.466 25.808 156.946 25.6C157.442 25.392 157.802 25.032 158.026 24.52H160.834C160.674 25.16 160.41 25.712 160.042 26.176C159.69 26.64 159.266 27.024 158.77 27.328C158.29 27.616 157.754 27.832 157.162 27.976C156.586 28.104 155.97 28.168 155.314 28.168C154.306 28.168 153.418 28.016 152.65 27.712C151.898 27.408 151.266 26.968 150.754 26.392C150.242 25.816 149.858 25.136 149.602 24.352C149.362 23.552 149.242 22.656 149.242 21.664C149.242 20.704 149.378 19.832 149.65 19.048C149.922 18.248 150.314 17.56 150.826 16.984C151.354 16.408 151.986 15.96 152.722 15.64C153.458 15.304 154.298 15.136 155.242 15.136C156.234 15.136 157.09 15.304 157.81 15.64C158.53 15.96 159.13 16.4 159.61 16.96C160.106 17.52 160.474 18.176 160.714 18.928C160.954 19.68 161.074 20.496 161.074 21.376C161.074 21.792 161.05 22.2 161.002 22.6H151.978ZM158.41 20.536C158.362 19.544 158.05 18.792 157.474 18.28C156.914 17.768 156.178 17.512 155.266 17.512C154.754 17.512 154.306 17.592 153.922 17.752C153.538 17.912 153.21 18.128 152.938 18.4C152.682 18.672 152.474 18.992 152.314 19.36C152.154 19.728 152.05 20.12 152.002 20.536H158.41ZM163.551 28V15.352H166.263V20.512H168.207L171.447 15.352H174.567L170.559 21.376L174.879 28H171.711L168.375 22.888H166.263V28H163.551ZM184.343 26.44C183.927 27.032 183.375 27.472 182.687 27.76C181.999 28.032 181.231 28.168 180.383 28.168C179.711 28.168 179.095 28.088 178.535 27.928C177.991 27.768 177.511 27.528 177.095 27.208C176.679 26.872 176.351 26.464 176.111 25.984C175.871 25.488 175.751 24.928 175.751 24.304C175.751 23.616 175.887 23.032 176.159 22.552C176.431 22.056 176.799 21.656 177.263 21.352C177.743 21.048 178.303 20.824 178.943 20.68C179.583 20.52 180.255 20.44 180.959 20.44H184.199C184.199 19.512 183.991 18.792 183.575 18.28C183.159 17.768 182.431 17.504 181.391 17.488C180.783 17.488 180.255 17.592 179.807 17.8C179.375 18.008 179.087 18.352 178.943 18.832H176.135C176.231 18.16 176.447 17.592 176.783 17.128C177.135 16.664 177.551 16.28 178.031 15.976C178.527 15.672 179.071 15.456 179.663 15.328C180.271 15.2 180.879 15.136 181.487 15.136C182.271 15.136 182.999 15.24 183.671 15.448C184.343 15.656 184.927 16.008 185.423 16.504C185.983 17.08 186.359 17.768 186.551 18.568C186.743 19.368 186.839 20.24 186.839 21.184V28H184.463L184.343 26.44ZM184.199 22.384H181.559C181.095 22.384 180.631 22.424 180.167 22.504C179.703 22.568 179.303 22.736 178.967 23.008C178.647 23.264 178.487 23.64 178.487 24.136C178.487 24.744 178.703 25.208 179.135 25.528C179.583 25.832 180.127 25.984 180.767 25.984C181.263 25.984 181.719 25.92 182.135 25.792C182.567 25.664 182.935 25.456 183.239 25.168C183.543 24.864 183.775 24.488 183.935 24.04C184.111 23.576 184.199 23.024 184.199 22.384Z" fill="white"/>
</svg>
