<svg width="186" height="192" viewBox="0 0 186 192" fill="none" xmlns="http://www.w3.org/2000/svg">
<g filter="url(#filter0_d_34_7888)">
<path d="M119.188 20.501H66.8125C44.0625 20.501 30.5 34.0635 30.5 56.8135V109.126C30.5 131.938 44.0625 145.501 66.8125 145.501H119.125C141.875 145.501 155.438 131.938 155.438 109.188V56.8135C155.5 34.0635 141.938 20.501 119.188 20.501ZM89.875 115.813C89.875 118.063 87.625 119.563 85.5625 118.688C78 115.438 68.125 112.438 61.25 111.563L60.0625 111.438C56.25 110.938 53.125 107.376 53.125 103.501V55.376C53.125 50.5635 57 47.001 61.75 47.376C69.5625 48.001 81.125 51.751 88.375 55.876C89.375 56.4385 89.875 57.501 89.875 58.5635V115.813ZM132.875 103.438C132.875 107.313 129.75 110.876 125.938 111.376L124.625 111.501C117.813 112.438 108 115.376 100.438 118.563C98.375 119.438 96.125 117.938 96.125 115.688V58.501C96.125 57.376 96.6875 56.3135 97.6875 55.751C104.938 51.6885 116.25 48.0635 123.938 47.376H124.188C129 47.376 132.875 51.251 132.875 56.0635V103.438Z" fill="white"/>
</g>
<path d="M24.968 171.032H36.896V173.528H27.752V177.776H31.64C32.568 177.776 33.416 177.856 34.184 178.016C34.968 178.16 35.624 178.424 36.152 178.808C36.696 179.192 37.112 179.704 37.4 180.344C37.704 180.968 37.856 181.744 37.856 182.672C37.856 183.696 37.664 184.552 37.28 185.24C36.912 185.928 36.416 186.48 35.792 186.896C35.168 187.296 34.456 187.584 33.656 187.76C32.856 187.92 32.024 188 31.16 188H24.968V171.032ZM27.752 185.528H30.968C31.48 185.528 31.984 185.504 32.48 185.456C32.976 185.392 33.416 185.264 33.8 185.072C34.184 184.88 34.496 184.6 34.736 184.232C34.976 183.864 35.096 183.368 35.096 182.744C35.096 182.168 34.984 181.712 34.76 181.376C34.536 181.04 34.24 180.792 33.872 180.632C33.52 180.456 33.112 180.352 32.648 180.32C32.184 180.272 31.712 180.248 31.232 180.248H27.752V185.528ZM43.0867 188H40.5427V175.352H43.2787V184.04L49.7107 175.352H52.1827V188H49.4467V179.48C49.4307 179.512 47.3107 182.352 43.0867 188ZM57.3277 177.968C57.8397 177.328 58.4797 176.872 59.2477 176.6C60.0157 176.312 60.7917 176.168 61.5757 176.168C62.4397 176.168 63.2077 176.304 63.8797 176.576C64.5677 176.848 65.1517 177.232 65.6317 177.728C66.1117 178.224 66.4797 178.824 66.7357 179.528C66.9917 180.216 67.1197 180.992 67.1197 181.856C67.1197 182.784 66.9757 183.64 66.6877 184.424C66.4157 185.208 66.0077 185.88 65.4637 186.44C64.9357 186.984 64.2877 187.408 63.5197 187.712C62.7677 188.016 61.9117 188.168 60.9517 188.168C59.6877 188.152 58.6477 187.896 57.8317 187.4C57.0317 186.904 56.3997 186.264 55.9357 185.48C55.4717 184.696 55.1517 183.816 54.9757 182.84C54.7997 181.848 54.7117 180.848 54.7117 179.84C54.7117 178.832 54.7837 177.8 54.9277 176.744C55.0877 175.688 55.3997 174.752 55.8637 173.936C56.2477 173.296 56.6877 172.792 57.1837 172.424C57.6957 172.04 58.2557 171.752 58.8637 171.56C59.4717 171.352 60.1197 171.2 60.8077 171.104C61.4957 171.008 62.2077 170.912 62.9437 170.816C63.5037 170.752 64.0717 170.688 64.6477 170.624C65.2397 170.56 65.8157 170.432 66.3757 170.24V172.856C66.0877 172.984 65.6877 173.088 65.1757 173.168C64.6637 173.232 64.1197 173.296 63.5437 173.36C62.9677 173.408 62.3997 173.464 61.8397 173.528C61.2797 173.576 60.7837 173.632 60.3517 173.696C59.8397 173.776 59.3837 173.952 58.9837 174.224C58.5997 174.48 58.2877 174.8 58.0477 175.184C57.8077 175.552 57.6317 175.984 57.5197 176.48C57.4077 176.96 57.3437 177.456 57.3277 177.968ZM61.0237 185.792C61.5677 185.792 62.0477 185.688 62.4637 185.48C62.8957 185.272 63.2557 185.008 63.5437 184.688C63.8317 184.352 64.0477 183.968 64.1917 183.536C64.3357 183.088 64.4077 182.624 64.4077 182.144C64.4077 181.648 64.3277 181.184 64.1677 180.752C64.0237 180.304 63.8077 179.928 63.5197 179.624C63.2477 179.304 62.9117 179.056 62.5117 178.88C62.1117 178.704 61.6557 178.616 61.1437 178.616C60.6157 178.616 60.1357 178.704 59.7037 178.88C59.2877 179.04 58.9277 179.28 58.6237 179.6C58.3357 179.904 58.1037 180.272 57.9277 180.704C57.7517 181.136 57.6557 181.6 57.6397 182.096C57.6397 182.576 57.7037 183.04 57.8317 183.488C57.9597 183.92 58.1597 184.304 58.4317 184.64C58.7197 184.976 59.0717 185.256 59.4877 185.48C59.9197 185.688 60.4317 185.792 61.0237 185.792ZM70.5703 181.976C70.6503 180.888 70.6983 179.808 70.7143 178.736C70.7463 177.648 70.7783 176.52 70.8103 175.352H80.2663V188H77.5063V177.728H73.3543C73.3223 178.512 73.2903 179.296 73.2583 180.08C73.2423 180.848 73.2103 181.616 73.1623 182.384C73.1463 182.672 73.1143 183.016 73.0663 183.416C73.0343 183.8 72.9863 184.192 72.9223 184.592C72.8583 184.976 72.7623 185.344 72.6343 185.696C72.5063 186.032 72.3463 186.344 72.1543 186.632C71.8183 187.112 71.3703 187.464 70.8103 187.688C70.2663 187.896 69.6343 188 68.9143 188H68.2423V185.648C68.7223 185.648 69.1063 185.536 69.3943 185.312C69.6983 185.072 69.9223 184.776 70.0663 184.424C70.2263 184.056 70.3383 183.664 70.4023 183.248C70.4823 182.816 70.5383 182.392 70.5703 181.976ZM85.7898 188H83.2458V175.352H85.9818V184.04L92.4138 175.352H94.8858V188H92.1498V179.48C92.1338 179.512 90.0138 182.352 85.7898 188ZM103.559 175.136C104.567 175.136 105.455 175.296 106.223 175.616C106.991 175.936 107.639 176.384 108.167 176.96C108.711 177.52 109.119 178.2 109.391 179C109.663 179.8 109.799 180.688 109.799 181.664C109.799 182.656 109.663 183.552 109.391 184.352C109.135 185.136 108.743 185.816 108.215 186.392C107.687 186.968 107.031 187.408 106.247 187.712C105.479 188.016 104.583 188.168 103.559 188.168C102.551 188.168 101.663 188.016 100.895 187.712C100.127 187.392 99.4788 186.952 98.9508 186.392C98.4388 185.816 98.0468 185.128 97.7748 184.328C97.5188 183.528 97.3908 182.64 97.3908 181.664C97.3908 180.688 97.5188 179.8 97.7748 179C98.0468 178.2 98.4468 177.52 98.9748 176.96C99.5028 176.384 100.151 175.936 100.919 175.616C101.687 175.296 102.567 175.136 103.559 175.136ZM103.559 185.792C104.183 185.792 104.711 185.688 105.143 185.48C105.591 185.256 105.951 184.96 106.223 184.592C106.511 184.224 106.719 183.792 106.847 183.296C106.991 182.8 107.063 182.264 107.063 181.688C107.063 181.112 106.991 180.576 106.847 180.08C106.719 179.568 106.511 179.128 106.223 178.76C105.951 178.392 105.591 178.104 105.143 177.896C104.711 177.688 104.183 177.584 103.559 177.584C102.951 177.584 102.423 177.688 101.975 177.896C101.543 178.104 101.183 178.392 100.895 178.76C100.623 179.128 100.415 179.568 100.271 180.08C100.143 180.576 100.079 181.112 100.079 181.688C100.079 182.264 100.143 182.8 100.271 183.296C100.415 183.792 100.623 184.224 100.895 184.592C101.183 184.96 101.543 185.256 101.975 185.48C102.423 185.688 102.951 185.792 103.559 185.792ZM122.149 175.352V177.728H117.877V188H115.165V177.728H110.893V175.352H122.149ZM125.978 182.6C126.01 183.064 126.106 183.496 126.266 183.896C126.426 184.296 126.642 184.648 126.914 184.952C127.186 185.24 127.522 185.472 127.922 185.648C128.338 185.824 128.818 185.912 129.362 185.912C129.938 185.912 130.466 185.808 130.946 185.6C131.442 185.392 131.802 185.032 132.026 184.52H134.834C134.674 185.16 134.41 185.712 134.042 186.176C133.69 186.64 133.266 187.024 132.77 187.328C132.29 187.616 131.754 187.832 131.162 187.976C130.586 188.104 129.97 188.168 129.314 188.168C128.306 188.168 127.418 188.016 126.65 187.712C125.898 187.408 125.266 186.968 124.754 186.392C124.242 185.816 123.858 185.136 123.602 184.352C123.362 183.552 123.242 182.656 123.242 181.664C123.242 180.704 123.378 179.832 123.65 179.048C123.922 178.248 124.314 177.56 124.826 176.984C125.354 176.408 125.986 175.96 126.722 175.64C127.458 175.304 128.298 175.136 129.242 175.136C130.234 175.136 131.09 175.304 131.81 175.64C132.53 175.96 133.13 176.4 133.61 176.96C134.106 177.52 134.474 178.176 134.714 178.928C134.954 179.68 135.074 180.496 135.074 181.376C135.074 181.792 135.05 182.2 135.002 182.6H125.978ZM132.41 180.536C132.362 179.544 132.05 178.792 131.474 178.28C130.914 177.768 130.178 177.512 129.266 177.512C128.754 177.512 128.306 177.592 127.922 177.752C127.538 177.912 127.21 178.128 126.938 178.4C126.682 178.672 126.474 178.992 126.314 179.36C126.154 179.728 126.05 180.12 126.002 180.536H132.41ZM137.551 188V175.352H140.263V180.512H142.207L145.447 175.352H148.567L144.559 181.376L148.879 188H145.711L142.375 182.888H140.263V188H137.551ZM158.343 186.44C157.927 187.032 157.375 187.472 156.687 187.76C155.999 188.032 155.231 188.168 154.383 188.168C153.711 188.168 153.095 188.088 152.535 187.928C151.991 187.768 151.511 187.528 151.095 187.208C150.679 186.872 150.351 186.464 150.111 185.984C149.871 185.488 149.751 184.928 149.751 184.304C149.751 183.616 149.887 183.032 150.159 182.552C150.431 182.056 150.799 181.656 151.263 181.352C151.743 181.048 152.303 180.824 152.943 180.68C153.583 180.52 154.255 180.44 154.959 180.44H158.199C158.199 179.512 157.991 178.792 157.575 178.28C157.159 177.768 156.431 177.504 155.391 177.488C154.783 177.488 154.255 177.592 153.807 177.8C153.375 178.008 153.087 178.352 152.943 178.832H150.135C150.231 178.16 150.447 177.592 150.783 177.128C151.135 176.664 151.551 176.28 152.031 175.976C152.527 175.672 153.071 175.456 153.663 175.328C154.271 175.2 154.879 175.136 155.487 175.136C156.271 175.136 156.999 175.24 157.671 175.448C158.343 175.656 158.927 176.008 159.423 176.504C159.983 177.08 160.359 177.768 160.551 178.568C160.743 179.368 160.839 180.24 160.839 181.184V188H158.463L158.343 186.44ZM158.199 182.384H155.559C155.095 182.384 154.631 182.424 154.167 182.504C153.703 182.568 153.303 182.736 152.967 183.008C152.647 183.264 152.487 183.64 152.487 184.136C152.487 184.744 152.703 185.208 153.135 185.528C153.583 185.832 154.127 185.984 154.767 185.984C155.263 185.984 155.719 185.92 156.135 185.792C156.567 185.664 156.935 185.456 157.239 185.168C157.543 184.864 157.775 184.488 157.935 184.04C158.111 183.576 158.199 183.024 158.199 182.384Z" fill="white"/>
<defs>
<filter id="filter0_d_34_7888" x="-12" y="-12" width="210" height="210" filterUnits="userSpaceOnUse" color-interpolation-filters="sRGB">
<feFlood flood-opacity="0" result="BackgroundImageFix"/>
<feColorMatrix in="SourceAlpha" type="matrix" values="0 0 0 0 0 0 0 0 0 0 0 0 0 0 0 0 0 0 127 0" result="hardAlpha"/>
<feOffset dy="10"/>
<feGaussianBlur stdDeviation="15"/>
<feComposite in2="hardAlpha" operator="out"/>
<feColorMatrix type="matrix" values="0 0 0 0 0 0 0 0 0 0 0 0 0 0 0 0 0 0 0.25 0"/>
<feBlend mode="normal" in2="BackgroundImageFix" result="effect1_dropShadow_34_7888"/>
<feBlend mode="normal" in="SourceGraphic" in2="effect1_dropShadow_34_7888" result="shape"/>
</filter>
</defs>
</svg>
