<svg width="32" height="32" viewBox="0 0 32 32" fill="none" xmlns="http://www.w3.org/2000/svg">
<path d="M22.704 0H9.296C3.472 0 0 3.472 0 9.296V22.688C0 28.528 3.472 32 9.296 32H22.688C28.512 32 31.984 28.528 31.984 22.704V9.296C32 3.472 28.528 0 22.704 0ZM20.464 16.848L14.816 22.496C14.576 22.736 14.272 22.848 13.968 22.848C13.664 22.848 13.36 22.736 13.12 22.496C12.656 22.032 12.656 21.264 13.12 20.8L17.92 16L13.12 11.2C12.656 10.736 12.656 9.968 13.12 9.504C13.584 9.04 14.352 9.04 14.816 9.504L20.464 15.152C20.944 15.616 20.944 16.384 20.464 16.848Z" fill="#4867F6"/>
</svg>
