<svg width="20" height="20" viewBox="0 0 20 20" fill="none" xmlns="http://www.w3.org/2000/svg">
<path d="M9.37508 4.99974V16.5914C9.37508 17.1831 8.77508 17.5914 8.23342 17.3664C6.68341 16.7164 4.75841 16.1497 3.39175 15.9664L3.13341 15.9331C2.32508 15.8331 1.66675 15.0914 1.66675 14.2831V4.37474C1.66675 3.37474 2.47508 2.56641 3.47508 2.56641H3.53341C5.10008 2.69974 7.40842 3.43307 8.93342 4.25807C9.20842 4.40807 9.37508 4.68307 9.37508 4.99974Z" fill="#C9CADC"/>
<path d="M16.525 2.56641H16.475C16.275 2.58307 16.0583 2.60807 15.8333 2.64974C14.8083 2.81641 13.5917 3.16641 12.5 3.59974C11.9833 3.80807 11.5 4.03307 11.075 4.25807C10.8 4.40807 10.625 4.69141 10.625 4.99974V16.5914C10.625 17.1831 11.225 17.5914 11.7667 17.3664C13.3167 16.7164 15.2417 16.1497 16.6083 15.9664L16.8667 15.9331C17.675 15.8331 18.3333 15.0914 18.3333 14.2831V4.37474C18.3333 3.37474 17.525 2.56641 16.525 2.56641Z" fill="#C9CADC"/>
</svg>
