<svg width="12" height="20" viewBox="0 0 12 20" fill="none" xmlns="http://www.w3.org/2000/svg">
<path d="M5.98565 10.3411C3.05039 10.3411 0.610748 7.9951 0.610748 5.21907C0.610748 2.34703 3.05039 0 5.98669 0C9.02274 0 11.3616 2.34603 11.3616 5.21907C11.3564 6.58213 10.789 7.88743 9.78428 8.84808C8.77953 9.80873 7.41957 10.3461 6.00332 10.3421L5.98565 10.3411ZM5.98565 3.01704C4.74297 3.01704 3.79746 4.02205 3.79746 5.22007C3.79746 6.41608 4.74297 7.32609 5.98669 7.32609C7.28029 7.32609 8.17593 6.41608 8.17593 5.22007C8.17697 4.02105 7.28029 3.01704 5.98565 3.01704ZM8.12606 14.6032L11.1631 17.4282C11.7606 18.0492 11.7606 18.9592 11.1631 19.5342C10.5169 20.1553 9.52044 20.1553 9.02274 19.5342L5.98669 16.6612L3.05039 19.5342C2.75219 19.8212 2.3532 19.9643 1.90434 19.9643C1.55627 19.9643 1.15832 19.8202 0.809203 19.5342C0.21176 18.9592 0.21176 18.0492 0.809203 17.4272L3.89512 14.6022C2.78069 14.2846 1.71164 13.8348 0.712572 13.2632C-0.0344908 12.8802 -0.183072 11.9232 0.214877 11.2041C0.712573 10.4861 1.60822 10.2951 2.40515 10.7741C3.48429 11.408 4.72404 11.7433 5.98825 11.7433C7.25246 11.7433 8.49222 11.408 9.57135 10.7741C10.3683 10.2951 11.3128 10.4861 11.7606 11.2041C12.2094 11.9232 12.0089 12.8792 11.3117 13.2632C10.3672 13.8382 9.27211 14.2692 8.1271 14.6042L8.12606 14.6032Z" fill="black"/>
</svg>
