<svg width="20" height="18" viewBox="0 0 20 18" fill="none" xmlns="http://www.w3.org/2000/svg">
<path d="M9.08768 1.03272C9.44106 0.245348 10.5589 0.245348 10.9123 1.03272L12.817 5.27649C12.9624 5.60048 13.2688 5.82305 13.6218 5.86122L18.2465 6.36129C19.1045 6.45407 19.4499 7.51723 18.8103 8.09663L15.3628 11.2195C15.0996 11.4579 14.9826 11.818 15.0554 12.1656L16.0089 16.7184C16.1858 17.5631 15.2815 18.2202 14.5327 17.7909L10.4974 15.4772C10.1893 15.3006 9.81067 15.3006 9.50259 15.4772L5.46725 17.7909C4.71855 18.2202 3.81417 17.5631 3.99108 16.7184L4.94458 12.1656C5.01738 11.818 4.90037 11.4579 4.63717 11.2195L1.18969 8.09663C0.550054 7.51723 0.895495 6.45407 1.75354 6.36129L6.37817 5.86122C6.73125 5.82305 7.03758 5.60048 7.18299 5.27649L9.08768 1.03272Z" fill="#F5A623"/>
</svg>
